<svg width="1364" height="256" viewBox="0 0 1364 256" fill="none" xmlns="http://www.w3.org/2000/svg">
<rect width="255.798" height="256" rx="127.899" fill="#3EB94E"/>
<path d="M163.208 28.0283L88.5195 227.723C88.5195 227.723 5.70739 86.3399 163.208 28.0283Z" fill="white"/>
<path d="M105.881 215.333L158.368 72.5844C158.368 72.5844 255.097 150.899 105.881 215.333Z" fill="white"/>
<path d="M322.92 38.242V221H368.678C382.652 221 405.394 218.534 419.916 203.19C428.684 193.874 431.972 183.462 431.972 170.31C431.972 159.076 429.78 146.472 419.916 136.06C410.874 126.744 399.64 123.73 396.352 122.908C400.462 120.99 405.942 117.428 410.052 110.304C414.436 103.18 415.532 95.782 415.532 88.658C415.532 73.588 410.874 61.806 401.01 52.49C388.954 41.256 374.158 38.242 350.594 38.242H322.92ZM350.868 64.546H360.458C368.404 64.546 376.35 65.368 382.652 71.396C388.406 76.876 389.228 83.452 389.228 88.932C389.228 95.234 388.406 103.728 382.104 109.756C375.528 116.058 366.212 116.88 359.362 116.88H350.868V64.546ZM350.868 139.896H368.404C378.268 139.896 389.502 140.718 397.174 148.116C401.832 152.774 404.572 159.898 404.572 167.296C404.572 175.516 401.01 183.188 395.53 187.572C388.406 193.326 375.802 194.696 367.856 194.696H350.868V139.896ZM543.043 182.092C540.577 186.476 537.015 191.134 532.357 194.696C526.877 198.806 521.397 200.45 513.999 200.45C507.423 200.45 499.751 199.354 493.449 193.052C487.695 187.298 484.133 177.982 483.585 169.762H566.333V166.474C566.333 154.418 564.963 133.046 550.167 117.702C543.317 110.578 531.535 102.632 513.177 102.632C496.737 102.632 484.133 108.66 474.543 118.25C462.487 130.58 456.185 147.842 456.185 165.652C456.185 182.914 462.213 198.806 473.173 209.766C484.133 220.726 496.737 224.562 512.081 224.562C524.411 224.562 536.741 221.822 546.057 215.794C553.455 211.136 560.579 203.464 565.511 194.696L543.043 182.092ZM485.503 147.842C486.873 142.088 489.887 136.608 493.723 133.046C497.285 129.484 503.313 125.648 512.629 125.648C521.397 125.648 527.151 128.936 530.713 132.224C534.823 136.06 537.837 141.54 538.933 147.842H485.503ZM678.788 119.072C667.828 104.824 653.032 102.632 644.538 102.632C614.124 102.632 588.368 125.648 588.368 163.186C588.368 194.97 608.644 224.562 644.264 224.562C652.484 224.562 667.006 222.644 678.788 208.944V221H705.64V105.646H678.788V119.072ZM647.826 126.744C664.814 126.744 680.432 138.8 680.432 164.008C680.432 188.12 664.814 200.45 647.826 200.45C628.372 200.45 615.768 183.736 615.768 163.734C615.768 143.184 628.372 126.744 647.826 126.744ZM739.417 221H766.269V165.652C766.269 128.388 778.599 126.744 790.655 126.744C800.793 126.744 811.753 127.566 811.753 156.884V221H838.605V150.308C838.605 132.498 835.865 124.552 831.481 118.25C827.919 113.318 818.877 102.632 797.505 102.632C790.929 102.632 777.777 103.454 766.269 116.332V105.646H739.417V221ZM943.095 122.908C938.985 115.51 933.779 111.126 929.943 108.66C923.367 104.276 916.791 102.632 908.571 102.632C894.323 102.632 885.555 108.112 880.349 113.592C874.321 119.894 870.759 128.936 870.759 138.252C870.759 145.65 872.951 151.952 878.979 157.706C883.363 162.09 889.665 165.104 894.871 167.57L904.735 172.228C909.119 174.146 912.955 176.064 916.243 179.352C918.709 182.092 919.805 184.832 919.805 188.12C919.805 191.408 918.161 194.97 915.969 197.162C913.503 199.628 909.119 200.998 905.009 200.998C898.707 200.998 894.871 198.258 893.227 196.614C890.761 194.422 888.295 189.49 886.925 185.654L865.005 196.066C867.745 204.286 873.225 212.232 879.801 217.164C888.021 223.466 897.337 224.562 904.735 224.562C916.791 224.562 928.025 221.548 937.067 211.684C943.369 204.834 947.205 195.792 947.205 185.38C947.205 177.434 945.013 170.31 938.711 164.008C934.327 159.35 928.573 156.336 922.545 153.322L908.845 146.472C903.091 143.458 901.447 142.91 899.803 141.814C897.337 140.17 895.967 138.252 895.967 135.238C895.967 132.772 897.063 130.58 898.433 129.21C900.077 127.566 902.817 126.196 906.653 126.196C915.147 126.196 920.353 131.676 923.093 136.06L943.095 122.908ZM1019.64 130.306V105.646H999.088V63.45H972.236V105.646H961.002V130.306H972.236V221H999.088V130.306H1019.64ZM1122.17 119.072C1111.21 104.824 1096.41 102.632 1087.92 102.632C1057.5 102.632 1031.75 125.648 1031.75 163.186C1031.75 194.97 1052.02 224.562 1087.64 224.562C1095.86 224.562 1110.38 222.644 1122.17 208.944V221H1149.02V105.646H1122.17V119.072ZM1091.2 126.744C1108.19 126.744 1123.81 138.8 1123.81 164.008C1123.81 188.12 1108.19 200.45 1091.2 200.45C1071.75 200.45 1059.15 183.736 1059.15 163.734C1059.15 143.184 1071.75 126.744 1091.2 126.744ZM1183.07 21.254V221H1209.92V21.254H1183.07ZM1243.81 21.254V221H1270.66V176.612L1275.59 171.68L1313.4 221H1347.38L1294.22 153.596L1343.82 105.646H1308.2L1270.66 144.28V21.254H1243.81Z" fill="black"/>
</svg>
